<svg xmlns="http://www.w3.org/2000/svg" viewBox="0 0 1500 500" width="1500" height="500" role="img" aria-label="The Heat — Twitter banner (light)">
  <!-- Paper background -->
  <rect width="1500" height="500" fill="#FAFAF7"/>

  <!-- Lockup, centered. Source = lockup-outlined.svg, scaled to 720px wide, anchored at (390, 200). -->
  <g transform="translate(390 200) scale(1.683)">
    <g transform="translate(8 8)">
      <rect x="46.5" y="6" width="7" height="62" rx="3.5" fill="#16181B"/>
      <circle cx="50" cy="76" r="14" fill="#16181B"/>
      <circle cx="50" cy="76" r="7" fill="#C2410C"/>
    </g>
    <g transform="translate(124 10)">
      <path d="M18.56 14.76L2.84 14.76L2.84 7.07L43.37 7.07L43.37 14.76L27.69 14.76L27.69 58L18.56 58L18.56 14.76ZM58.27 35.61L58.27 35.61L58.27 58L49.39 58L49.39 7.07L58.14 7.07L58.14 26.83Q59.61 23.62 61.93 21.77L61.93 21.77Q65.04 19.31 69.72 19.31L69.72 19.31Q73.66 19.31 76.61 20.98Q79.57 22.66 81.19 25.87Q82.82 29.08 82.82 33.70L82.82 33.70L82.82 58L73.89 58L73.89 35.07Q73.89 31.24 71.91 29.05Q69.93 26.86 66.44 26.86L66.44 26.86Q64.09 26.86 62.24 27.89Q60.39 28.91 59.33 30.88Q58.27 32.84 58.27 35.61ZM107.59 58.79L107.59 58.79Q101.82 58.79 97.66 56.36Q93.51 53.93 91.27 49.52Q89.03 45.11 89.03 39.13L89.03 39.13Q89.03 33.22 91.24 28.78Q93.44 24.33 97.49 21.82Q101.54 19.31 107.01 19.31L107.01 19.31Q110.50 19.31 113.66 20.44Q116.82 21.56 119.27 23.92Q121.71 26.28 123.09 29.92Q124.48 33.56 124.48 38.59L124.48 38.59L124.48 41.39L97.85 41.39Q97.99 44.53 99.08 46.79L99.08 46.79Q100.31 49.28 102.54 50.55Q104.76 51.81 107.70 51.81L107.70 51.81Q109.64 51.81 111.23 51.25Q112.82 50.69 113.99 49.57Q115.15 48.46 115.73 46.86L115.73 46.86L123.90 48.53Q122.97 51.61 120.75 53.92Q118.53 56.22 115.20 57.50Q111.87 58.79 107.59 58.79ZM97.89 35.34L97.89 35.34L115.83 35.34Q115.63 33.22 114.91 31.44L114.91 31.44Q113.92 29.02 111.95 27.65Q109.99 26.28 107.05 26.28Q104.11 26.28 102.06 27.67Q100.01 29.05 98.95 31.34L98.95 31.34Q98.09 33.19 97.89 35.34ZM156.19 58L147.07 58L147.07 7.07L156.19 7.07L156.19 28.13L179.88 28.13L179.88 7.07L189.01 7.07L189.01 58L179.88 58L179.88 35.82L156.19 35.82L156.19 58ZM214.19 58.79L214.19 58.79Q208.42 58.79 204.27 56.36Q200.11 53.93 197.87 49.52Q195.63 45.11 195.63 39.13L195.63 39.13Q195.63 33.22 197.84 28.78Q200.04 24.33 204.09 21.82Q208.14 19.31 213.61 19.31L213.61 19.31Q217.10 19.31 220.26 20.44Q223.42 21.56 225.87 23.92Q228.31 26.28 229.70 29.92Q231.08 33.56 231.08 38.59L231.08 38.59L231.08 41.39L204.45 41.39Q204.59 44.53 205.68 46.79L205.68 46.79Q206.91 49.28 209.14 50.55Q211.36 51.81 214.30 51.81L214.30 51.81Q216.25 51.81 217.83 51.25Q219.42 50.69 220.59 49.57Q221.75 48.46 222.33 46.86L222.33 46.86L230.50 48.53Q229.58 51.61 227.35 53.92Q225.13 56.22 221.80 57.50Q218.47 58.79 214.19 58.79ZM204.49 35.34L204.49 35.34L222.43 35.34Q222.23 33.22 221.51 31.44L221.51 31.44Q220.52 29.02 218.55 27.65Q216.59 26.28 213.65 26.28Q210.71 26.28 208.66 27.67Q206.61 29.05 205.55 31.34L205.55 31.34Q204.69 33.19 204.49 35.34ZM247.83 58.79L247.83 58.79Q244.20 58.79 241.30 57.47Q238.39 56.15 236.72 53.59Q235.04 51.03 235.04 47.27L235.04 47.27Q235.04 44.02 236.26 41.90Q237.47 39.78 239.54 38.52Q241.60 37.25 244.20 36.60Q246.80 35.95 249.60 35.68L249.60 35.68Q252.92 35.30 255.00 35.03Q257.09 34.76 258.06 34.14Q259.04 33.53 259.04 32.23L259.04 32.23L259.04 32.06Q259.04 30.18 258.28 28.86Q257.53 27.55 256.05 26.85Q254.56 26.14 252.37 26.14L252.37 26.14Q250.15 26.14 248.53 26.83Q246.90 27.51 245.88 28.61Q244.85 29.70 244.37 30.96L244.37 30.96L236.14 29.29Q237.26 25.91 239.62 23.70Q241.98 21.50 245.24 20.40Q248.51 19.31 252.34 19.31L252.34 19.31Q255.04 19.31 257.79 19.94Q260.54 20.57 262.83 22.08Q265.12 23.58 266.52 26.11Q267.92 28.64 267.92 32.47L267.92 32.47L267.92 58L259.41 58L259.41 52.74L259.07 52.74Q258.22 54.34 256.73 55.73Q255.24 57.11 253.04 57.95Q250.83 58.79 247.83 58.79ZM250.12 52.19L250.12 52.19Q252.88 52.19 254.88 51.10Q256.88 50.00 257.99 48.21Q259.10 46.41 259.10 44.29L259.10 44.29L259.10 39.78Q258.66 40.12 257.62 40.43Q256.58 40.74 255.29 40.98Q254.01 41.22 252.76 41.39Q251.52 41.56 250.66 41.66L250.66 41.66Q248.68 41.94 247.07 42.55Q245.47 43.17 244.56 44.28Q243.66 45.39 243.66 47.17L243.66 47.17Q243.66 48.81 244.49 49.92Q245.33 51.03 246.78 51.61Q248.24 52.19 250.12 52.19ZM286.10 19.79L293.49 19.79L293.49 26.76L286.10 26.76L286.10 47.23Q286.10 49.32 286.99 50.29Q287.88 51.27 289.90 51.27L289.90 51.27Q290.51 51.27 291.52 51.11Q292.53 50.96 293.15 50.82L293.15 50.82L294.55 57.69Q293.08 58.14 291.54 58.32Q290.00 58.51 288.60 58.51L288.60 58.51Q283.10 58.51 280.16 55.78Q277.22 53.04 277.22 47.99L277.22 47.99L277.22 26.76L271.78 26.76L271.78 19.79L277.22 19.79L277.22 10.70L286.10 10.70L286.10 19.79Z" fill="#16181B"/>
    </g>
  </g>

  <!-- Tagline (Inter SemiBold via system / falls back gracefully — but we render as outlined text in the PNG step) -->
  <text x="750" y="380" text-anchor="middle"
        font-family="Inter, system-ui, -apple-system, sans-serif"
        font-weight="500"
        font-size="26"
        letter-spacing="0.02em"
        fill="#3A3D43">The planet's scorecard.</text>
</svg>
